<?xml version="1.0" encoding="UTF-8" standalone="no"?>
<!-- Created with Inkscape (http://www.inkscape.org/) -->

<svg
   width="48"
   height="48"
   viewBox="0 0 12.7 12.7"
   version="1.1"
   id="svg1"
   xml:space="preserve"
   sodipodi:docname="logo_satisfiability_jl.svg"
   inkscape:version="1.4.2 (ebf0e940d0, 2025-05-08)"
   inkscape:export-filename="logo_blue.svg"
   inkscape:export-xdpi="96"
   inkscape:export-ydpi="96"
   xmlns:inkscape="http://www.inkscape.org/namespaces/inkscape"
   xmlns:sodipodi="http://sodipodi.sourceforge.net/DTD/sodipodi-0.dtd"
   xmlns="http://www.w3.org/2000/svg"
   xmlns:svg="http://www.w3.org/2000/svg"><sodipodi:namedview
     id="namedview1"
     pagecolor="#000000"
     bordercolor="#999999"
     borderopacity="1"
     inkscape:showpageshadow="0"
     inkscape:pageopacity="0"
     inkscape:pagecheckerboard="true"
     inkscape:deskcolor="#d1d1d1"
     inkscape:document-units="mm"
     showgrid="false"
     inkscape:zoom="9.1259816"
     inkscape:cx="32.927965"
     inkscape:cy="59.938758"
     inkscape:window-width="3822"
     inkscape:window-height="2079"
     inkscape:window-x="1087"
     inkscape:window-y="1150"
     inkscape:window-maximized="1"
     inkscape:current-layer="layer1"
     borderlayer="true" /><defs
     id="defs1"><inkscape:path-effect
       effect="fillet_chamfer"
       id="path-effect23"
       is_visible="true"
       lpeversion="1"
       nodesatellites_param="F,0,0,1,0,0,0,1 @ F,0,0,1,0,0.20492476,0,1 @ F,0,0,1,0,0.48597808,0,1 @ F,0,0,1,0,0.5145873,0,1 @ F,0,0,1,0,0,0,1 @ F,0,0,1,0,0.18947483,0,1 @ F,0,1,1,0,0.35715523,0,1"
       radius="0"
       unit="px"
       method="auto"
       mode="F"
       chamfer_steps="1"
       flexible="false"
       use_knot_distance="true"
       apply_no_radius="true"
       apply_with_radius="true"
       only_selected="false"
       hide_knots="false" /><inkscape:path-effect
       effect="fillet_chamfer"
       id="path-effect22"
       is_visible="true"
       lpeversion="1"
       nodesatellites_param="F,0,0,1,0,0.19666295,0,1 @ F,0,0,1,0,0.19666295,0,1 @ F,0,0,1,0,0.19666295,0,1 @ F,0,1,1,0,0.20070532,0,1 @ F,0,1,1,0,0.20070532,0,1 @ F,0,0,1,0,0.19666295,0,1 @ F,0,0,1,0,0.19666295,0,1 @ F,0,0,1,0,0.19666295,0,1 @ F,0,0,1,0,0.19666295,0,1 @ F,0,0,1,0,0.19666295,0,1 @ F,0,0,1,0,0.19666295,0,1 @ F,0,1,1,0,0.20070532,0,1 @ F,0,1,1,0,0.20070532,0,1 @ F,0,0,1,0,0.19666295,0,1 @ F,0,0,1,0,0.19666295,0,1 @ F,0,0,1,0,0.19666295,0,1"
       radius="0"
       unit="px"
       method="auto"
       mode="F"
       chamfer_steps="1"
       flexible="false"
       use_knot_distance="true"
       apply_no_radius="true"
       apply_with_radius="true"
       only_selected="false"
       hide_knots="false" /><inkscape:path-effect
       effect="fillet_chamfer"
       id="path-effect21"
       is_visible="true"
       lpeversion="1"
       nodesatellites_param="F,0,1,1,0,0.17258187,0,1 @ F,0,1,1,0,0.17258187,0,1 @ F,0,1,1,0,0.17258187,0,1 @ F,0,1,1,0,0.17258187,0,1 @ F,0,1,1,0,0.17258187,0,1 @ F,0,1,1,0,0.17258187,0,1 @ F,0,1,1,0,0.17258187,0,1 @ F,0,1,1,0,0.17258187,0,1 @ F,0,1,1,0,0.17258187,0,1 @ F,0,1,1,0,0.17258187,0,1 @ F,0,1,1,0,0.17258187,0,1 @ F,0,1,1,0,0.17258187,0,1 @ F,0,0,1,0,0.17258187,0,1 @ F,0,1,1,0,0.17258187,0,1 @ F,0,1,1,0,0.17258187,0,1 @ F,0,1,1,0,0.17258187,0,1 @ F,0,1,1,0,0.17258187,0,1 @ F,0,1,1,0,0.17258187,0,1 @ F,0,1,1,0,0.17258187,0,1 @ F,0,1,1,0,0.17258187,0,1 @ F,0,1,1,0,0.17258187,0,1 @ F,0,1,1,0,0.17258187,0,1"
       radius="0"
       unit="px"
       method="auto"
       mode="F"
       chamfer_steps="1"
       flexible="false"
       use_knot_distance="true"
       apply_no_radius="true"
       apply_with_radius="true"
       only_selected="false"
       hide_knots="false" /><inkscape:path-effect
       effect="fillet_chamfer"
       id="path-effect54"
       is_visible="true"
       lpeversion="1"
       nodesatellites_param="F,0,0,1,0,0,0,1 @ F,0,0,1,0,0,0,1 @ F,0,0,1,0,0,0,1 @ F,0,0,1,0,0,0,1 @ F,0,0,1,0,0,0,1 @ F,0,0,1,0,0,0,1 @ F,0,0,1,0,0,0,1 @ F,0,0,1,0,0,0,1 | F,0,0,1,0,0,0,1 @ F,0,0,1,0,0,0,1 @ F,0,0,1,0,0,0,1 @ F,0,0,1,0,0,0,1 @ C,0,0,1,0,0,0,1 @ F,0,0,1,0,0,0,1 @ F,0,0,1,0,0,0,1 @ F,0,0,1,0,0,0,1 @ F,0,0,1,0,0,0,1 @ F,0,0,1,0,0,0,1 @ F,0,0,1,0,0,0,1 @ F,0,0,1,0,0,0,1 @ F,0,0,1,0,0,0,1 @ F,0,0,1,0,0,0,1 @ F,0,0,1,0,0,0,1 | F,0,0,1,0,0,0,1 @ F,0,0,1,0,0,0,1 @ F,0,0,1,0,0,0,1 @ F,0,0,1,0,0,0,1 @ F,0,0,1,0,0,0,1 @ F,0,0,1,0,0,0,1 @ F,0,0,1,0,0,0,1 @ F,0,0,1,0,0,0,1"
       radius="0"
       unit="px"
       method="auto"
       mode="F"
       chamfer_steps="1"
       flexible="false"
       use_knot_distance="true"
       apply_no_radius="true"
       apply_with_radius="true"
       only_selected="false"
       hide_knots="false" /><inkscape:path-effect
       effect="fillet_chamfer"
       id="path-effect53"
       is_visible="true"
       lpeversion="1"
       nodesatellites_param="F,0,0,1,0,0,0,1 @ F,0,0,1,0,0,0,1 @ F,0,0,1,0,0,0,1 @ F,0,0,1,0,0,0,1 @ F,0,0,1,0,0,0,1 @ F,0,0,1,0,0.99888224,0,1 @ F,0,0,1,0,0,0,1 @ F,0,0,1,0,0,0,1 @ F,0,0,1,0,0,0,1 @ F,0,0,1,0,0,0,1 @ F,0,0,1,0,0,0,1 @ F,0,0,1,0,0,0,1 | F,0,0,1,0,0,0,1 @ F,0,0,1,0,0,0,1 @ F,0,0,1,0,0,0,1 @ F,0,0,1,0,0,0,1 | F,0,0,1,0,0,0,1 @ F,0,0,1,0,0,0,1 @ F,0,0,1,0,0,0,1 @ F,0,0,1,0,0,0,1 @ F,0,0,1,0,0,0,1 @ F,0,0,1,0,0,0,1 | F,0,0,1,0,0,0,1 @ F,0,0,1,0,0,0,1 @ F,0,0,1,0,0.5021643,0,1 @ F,0,0,1,0,0,0,1 @ F,0,0,1,0,0,0,1"
       radius="0"
       unit="px"
       method="auto"
       mode="F"
       chamfer_steps="1"
       flexible="false"
       use_knot_distance="true"
       apply_no_radius="true"
       apply_with_radius="true"
       only_selected="false"
       hide_knots="false" /><inkscape:path-effect
       effect="fillet_chamfer"
       id="path-effect52"
       is_visible="true"
       lpeversion="1"
       nodesatellites_param="F,0,0,1,0,0,0,1 @ F,0,0,1,0,0,0,1 @ F,0,0,1,0,0,0,1 @ F,0,0,1,0,0,0,1 @ F,0,0,1,0,0,0,1 @ F,0,0,1,0,0.87119842,0,1 @ F,0,0,1,0,0,0,1 @ F,0,0,1,0,0,0,1 @ F,0,0,1,0,0,0,1 @ F,0,0,1,0,0,0,1 @ F,0,0,1,0,0,0,1 @ F,0,0,1,0,0,0,1 | F,0,0,1,0,0,0,1 @ F,0,0,1,0,0,0,1 @ F,0,0,1,0,0,0,1 @ F,0,0,1,0,0,0,1 | F,0,0,1,0,0,0,1 @ F,0,0,1,0,0,0,1 @ F,0,0,1,0,0,0,1 @ F,0,0,1,0,0,0,1 @ F,0,0,1,0,0,0,1 @ F,0,0,1,0,0,0,1 | F,0,0,1,0,0,0,1 @ F,0,0,1,0,0,0,1 @ F,0,0,1,0,0,0,1 @ F,0,0,1,0,0,0,1 @ F,0,0,1,0,0,0,1"
       radius="0"
       unit="px"
       method="auto"
       mode="F"
       chamfer_steps="1"
       flexible="false"
       use_knot_distance="true"
       apply_no_radius="true"
       apply_with_radius="true"
       only_selected="false"
       hide_knots="false" /><inkscape:path-effect
       effect="fillet_chamfer"
       id="path-effect28"
       is_visible="true"
       lpeversion="1"
       nodesatellites_param="F,0,0,1,0,0,0,1 @ F,0,0,1,0,0,0,1 @ F,0,0,1,0,0,0,1 @ F,0,0,1,0,0,0,1 @ F,0,0,1,0,0,0,1 @ F,0,0,1,0,0.18198418,0,1 @ F,0,0,1,0,0,0,1 @ F,0,0,1,0,0,0,1 @ F,0,0,1,0,0,0,1 @ F,0,0,1,0,0,0,1 @ F,0,0,1,0,0,0,1 @ F,0,0,1,0,0,0,1 @ F,0,0,1,0,0,0,1 @ F,0,0,1,0,0,0,1 @ F,0,0,1,0,0,0,1 @ F,0,0,1,0,0,0,1 @ F,0,1,1,0,0.31797625,0,1 @ F,0,0,1,0,0,0,1 @ F,0,0,1,0,0,0,1 @ F,0,0,1,0,0,0,1 @ F,0,0,1,0,0,0,1 @ F,0,0,1,0,0,0,1 @ F,0,0,1,0,0,0,1"
       radius="0"
       unit="px"
       method="auto"
       mode="F"
       chamfer_steps="1"
       flexible="false"
       use_knot_distance="true"
       apply_no_radius="true"
       apply_with_radius="true"
       only_selected="false"
       hide_knots="false" /><inkscape:path-effect
       effect="fillet_chamfer"
       id="path-effect27"
       is_visible="true"
       lpeversion="1"
       nodesatellites_param="F,0,0,1,0,0,0,1 @ F,0,0,1,0,0,0,1 @ F,0,0,1,0,0,0,1 @ F,0,0,1,0,0,0,1 @ F,0,0,1,0,0,0,1 @ F,0,0,1,0,0.21836844,0,1 @ F,0,0,1,0,0,0,1 @ F,0,0,1,0,0,0,1 @ F,0,0,1,0,0,0,1 @ F,0,0,1,0,0,0,1 @ F,0,0,1,0,0,0,1 @ F,0,0,1,0,0,0,1 @ F,0,0,1,0,0,0,1 @ F,0,0,1,0,0,0,1 @ F,0,0,1,0,0,0,1 @ F,0,0,1,0,0,0,1 @ F,0,0,1,0,0,0,1 @ F,0,0,1,0,0,0,1 @ F,0,0,1,0,0,0,1 @ F,0,0,1,0,0,0,1 @ F,0,0,1,0,0,0,1 @ F,0,0,1,0,0,0,1 @ F,0,0,1,0,0,0,1"
       radius="0"
       unit="px"
       method="auto"
       mode="F"
       chamfer_steps="1"
       flexible="false"
       use_knot_distance="true"
       apply_no_radius="true"
       apply_with_radius="true"
       only_selected="false"
       hide_knots="false" /><inkscape:path-effect
       effect="fillet_chamfer"
       id="path-effect26"
       is_visible="true"
       lpeversion="1"
       nodesatellites_param="F,0,0,1,0,0,0,1 @ F,0,0,1,0,0,0,1 @ F,0,0,1,0,0,0,1 @ F,0,0,1,0,0,0,1 @ F,0,0,1,0,0,0,1 @ F,0,0,1,0,0,0,1 @ F,0,0,1,0,0,0,1 @ F,0,0,1,0,0,0,1 @ F,0,0,1,0,0,0,1 @ F,0,0,1,0,0,0,1 @ F,0,0,1,0,0,0,1 @ F,0,0,1,0,0,0,1 @ F,0,0,1,0,0,0,1 @ F,0,0,1,0,0,0,1 @ F,0,0,1,0,0,0,1 @ F,0,0,1,0,0,0,1 @ F,0,0,1,0,0,0,1 @ F,0,0,1,0,0,0,1 @ F,0,0,1,0,0,0,1 @ F,0,0,1,0,0,0,1 @ F,0,0,1,0,0,0,1 @ F,0,0,1,0,0,0,1 @ F,0,0,1,0,0,0,1"
       radius="0"
       unit="px"
       method="auto"
       mode="F"
       chamfer_steps="1"
       flexible="false"
       use_knot_distance="true"
       apply_no_radius="true"
       apply_with_radius="true"
       only_selected="false"
       hide_knots="false" /><inkscape:path-effect
       effect="fillet_chamfer"
       id="path-effect25"
       is_visible="true"
       lpeversion="1"
       nodesatellites_param="F,0,0,1,0,0.1997109,0,1 @ F,0,0,1,0,0.24818667,0,1 @ F,0,0,1,0,0,0,1 @ F,0,0,1,0,0.29515633,0,1 @ F,0,0,1,0,0,0,1 @ F,0,0,1,0,0.24346358,0,1 @ F,0,0,1,0,0,0,1 @ F,0,0,1,0,0,0,1 @ F,0,0,1,0,0,0,1 @ F,0,0,1,0,0,0,1 @ F,0,0,1,0,0,0,1 @ F,0,0,1,0,0,0,1 @ F,0,0,1,0,0,0,1 @ F,0,0,1,0,0,0,1 @ F,0,0,1,0,0,0,1 @ F,0,0,1,0,0,0,1 @ F,0,0,1,0,0,0,1 @ F,0,0,1,0,0,0,1 @ F,0,0,1,0,0,0,1 @ F,0,0,1,0,0.11455627,0,1 @ F,0,0,1,0,0,0,1 @ F,0,0,1,0,0.1997109,0,1 @ F,0,0,1,0,0.1997109,0,1"
       radius="0"
       unit="px"
       method="auto"
       mode="F"
       chamfer_steps="1"
       flexible="false"
       use_knot_distance="true"
       apply_no_radius="true"
       apply_with_radius="true"
       only_selected="false"
       hide_knots="false" /><style
       id="style1">.cls-1{fill:#1a1a1a}.cls-2{fill:#4d64ae}.cls-3{fill:#ca3c32}.cls-4{fill:#9259a3}.cls-5{fill:#399746}</style><inkscape:path-effect
       effect="fillet_chamfer"
       id="path-effect29"
       is_visible="true"
       lpeversion="1"
       nodesatellites_param="F,0,0,1,0,0,0,1 @ F,0,0,1,0,0,0,1 @ F,0,0,1,0,0,0,1 @ F,0,0,1,0,0,0,1 @ F,0,0,1,0,0,0,1 @ F,0,0,1,0,0.054108325,0,1 @ F,0,0,1,0,0,0,1 @ F,0,0,1,0,0,0,1 @ F,0,0,1,0,0,0,1 @ F,0,0,1,0,0,0,1 @ F,0,0,1,0,0,0,1 @ F,0,0,1,0,0,0,1 @ F,0,0,1,0,0,0,1 @ F,0,0,1,0,0,0,1 @ F,0,0,1,0,0,0,1 @ F,0,0,1,0,0,0,1 @ F,0,0,1,0,0,0,1 @ F,0,0,1,0,0,0,1 @ F,0,0,1,0,0,0,1 @ F,0,0,1,0,0,0,1"
       radius="0"
       unit="px"
       method="auto"
       mode="F"
       chamfer_steps="1"
       flexible="false"
       use_knot_distance="true"
       apply_no_radius="true"
       apply_with_radius="true"
       only_selected="false"
       hide_knots="false" /></defs><g
     inkscape:label="Layer 1"
     inkscape:groupmode="layer"
     id="layer1"
     style="display:inline"><path
       style="display:inline;opacity:1;fill:#ca3c32;fill-opacity:1;stroke:none;stroke-width:0.0162233;stroke-dasharray:none"
       d="M 5.9827196,7.6466895 V 8.3980667 A 0.19666295,0.19666295 135 0 1 5.7860567,8.5947296 0.22646605,0.22646605 41.180516 0 1 5.5637921,8.4002852 L 5.5337472,8.2019553 A 0.23584172,0.23584172 40.987434 0 0 5.3029907,8.0014506 l -0.4768585,-0.0049 A 0.19865231,0.19865231 135.29454 0 0 4.6254375,8.1951894 v 2.5171116 a 0.20011519,0.20011519 45.4985 0 0 0.1966332,0.200085 l 0.123895,0.0022 a 0.17623508,0.17623508 49.132607 0 1 0.1717525,0.198505 l -0.02817,0.22087 A 0.2233382,0.2233382 138.63411 0 1 4.868005,11.529 H 3.645162 A 0.22637182,0.22637182 40.98283 0 1 3.4210122,11.334267 l -0.031275,-0.22157 a 0.16782106,0.16782106 131.49009 0 1 0.1691452,-0.191251 l 0.1149656,0.002 A 0.19321117,0.19321117 135.50726 0 0 3.8704799,10.730301 V 8.213255 A 0.20271674,0.20271674 45.285668 0 0 3.6697846,8.0105484 L 3.1656412,8.005521 A 0.21540824,0.21540824 137.59498 0 0 2.9487845,8.2035733 L 2.9330208,8.3987052 A 0.2131911,0.2131911 137.30931 0 1 2.720522,8.5947295 h -0.068383 c -0.108614,0 -0.1963054,-0.088048 -0.1958633,-0.1966613 0.00102,-0.2504583 0.00204,-0.5009164 0.00306,-0.7513747 4.421e-4,-0.108613 0.088849,-0.1966614 0.1974626,-0.1966616 l 3.1292579,-5e-6 a 0.19666264,0.19666264 44.999954 0 1 0.1966629,0.1966626 z"
       id="path29"
       inkscape:label="T"
       sodipodi:nodetypes="ccccccccccccccccc"
       inkscape:path-effect="#path-effect22"
       inkscape:original-d="m 5.9827196,7.4500266 v 1.144703 H 5.5932484 L 5.5036854,8.0035141 4.6254375,7.9944841 v 2.9144799 l 0.5171614,0.009 L 5.0646679,11.529 H 3.4484991 l -0.086249,-0.611036 0.5082298,0.009 V 8.0125497 l -0.905534,-0.00903 -0.047761,0.5912098 h -0.461709 c 0.00155,-0.3815658 0.00311,-0.7631315 0.00466,-1.1446973 z"
       transform="matrix(0.62690089,0,0,0.60605995,1.5844962,2.6755088)" /><path
       style="display:inline;fill:#618b57;fill-opacity:1;stroke:none;stroke-width:1.60705"
       d="m 3.055578,3.3306933 0,-0.8789674 A 0.17258187,0.17258187 135 0 1 3.2281599,2.279144 H 4.3463221 A 0.17258187,0.17258187 45 0 1 4.518904,2.4517259 V 2.5568175 A 0.17258187,0.17258187 45 0 0 4.6914859,2.7293994 H 4.8669301 A 0.17258187,0.17258187 135 0 0 5.039512,2.5568175 V 1.8097119 A 0.17258187,0.17258187 45 0 0 4.8669301,1.63713 H 2.1057764 A 0.17258187,0.17258187 135 0 0 1.9331945,1.8097119 V 2.1065621 A 0.17258187,0.17258187 45 0 0 2.1057764,2.279144 h 0.085529 c 0.095314,0 0.1725819,0.077268 0.1725759,0.1725819 -4.53e-5,0.7205706 -3.356e-4,1.9547582 -3.864e-4,2.6096374 -7.4e-6,0.095314 -0.077275,0.1725819 -0.1725895,0.1725819 H 2.1057794 A 0.17258187,0.17258187 135 0 0 1.9331975,5.4065271 V 5.694535 A 0.17258187,0.17258187 45 0 0 2.1057794,5.8671169 H 3.5020961 A 0.17258187,0.17258187 135 0 0 3.674678,5.694535 V 5.4065271 A 0.17258187,0.17258187 45 0 0 3.5020961,5.2339452 H 3.2281599 A 0.17258187,0.17258187 45 0 1 3.055578,5.0613633 V 4.2130546 A 0.17258187,0.17258187 135 0 1 3.2281599,4.0404727 H 3.8679301 A 0.17258187,0.17258187 45 0 1 4.040512,4.2130546 v 0.074432 a 0.17258187,0.17258187 45 0 0 0.1725819,0.1725819 h 0.034739 A 0.17258187,0.17258187 135 0 0 4.420415,4.2874865 V 3.2396724 A 0.17258187,0.17258187 45 0 0 4.2478331,3.0670905 H 4.2130939 A 0.17258187,0.17258187 135 0 0 4.040512,3.2396724 v 0.091021 A 0.17258187,0.17258187 135 0 1 3.8679301,3.5032752 H 3.2281599 A 0.17258187,0.17258187 45 0 1 3.055578,3.3306933 Z"
       id="path28"
       sodipodi:nodetypes="ccccccccccccccccccccccc"
       inkscape:path-effect="#path-effect21"
       inkscape:original-d="M 3.055578,3.5032752 V 2.279144 H 4.518904 V 2.7293994 H 5.039512 V 1.63713 H 1.9331945 v 0.642014 h 0.430693 c 0,0.7386487 -4e-4,2.3251126 -4e-4,2.9548012 h -0.43029 V 5.8671169 H 3.674678 V 5.2339452 h -0.6191 V 4.0404727 H 4.040512 V 4.4600684 H 4.420415 V 3.0670905 H 4.040512 v 0.4361847 z"
       transform="matrix(0.62225249,0,0,0.62225249,2.1543879,1.8923082)"
       inkscape:label="F" /><path
       style="display:inline;fill:#1a1a1a;fill-opacity:1;stroke-width:1.29798"
       d="m 4.8796094,11.387542 h -2.875328 c -0.4080344,0 -0.7388056,-0.330777 -0.7389049,-0.738812 C 1.2650969,9.4986966 1.264267,8.4407055 1.2639849,7.300959 1.2638839,6.8929248 1.594668,6.5622278 2.0026994,6.5637431 c 0.9313642,0.00346 2.070807,0.011676 2.8769506,0.015906 0.4080089,0.00214 0.738771,0.3333931 0.738771,0.7414275 V 10.64873 c 1e-7,0.408035 -0.3307772,0.738812 -0.7388116,0.738812 z M 11.393601,6.8303335 v 4.5572085 c -1.7288959,-0.03072 -3.4118106,-3.42e-4 -5.1531066,0 V 1.2160032 c 1.6024552,0.00324 3.7983026,-3.4e-4 5.1531066,-3.4e-4 V 4.4530057 L 12.174457,3.4885592 V 0.59856855 c -6.6879401,0 -8.5010397,-3.8612e-4 -10.1356361,-2.476e-4 -0.7665416,6.496e-5 -1.38795735,0.62165245 -1.38784546,1.38819405 6.5111e-4,4.4605737 0.004194,7.0095145 0.002909,8.688248 -5.8666e-4,0.766537 0.61838456,1.391986 1.38492356,1.393791 2.723443,0.0064 6.7884051,-0.0059 10.135649,-0.0059 v 4.4e-5 -6.4119186 z M 4.8796094,5.9400621 H 2.0027038 c -0.4080344,0 -0.7338188,-0.3307544 -0.7332777,-0.7387854 0.00144,-1.085476 -0.021834,-2.1717212 -0.00677,-3.2569267 0.00566,-0.407552 0.3476465,-0.7343289 0.7556733,-0.7318979 0.9537169,0.00568 1.9075324,0.00442 2.8612983,0.00359 0.4080229,-3.547e-4 0.7387933,0.3303491 0.7387933,0.7383835 v 3.2468249 c 0,0.4080344 -0.3307772,0.7388116 -0.7388116,0.7388116 z"
       id="path1"
       sodipodi:nodetypes="cccccccccccccccccccccccccsssccssss"
       inkscape:label="Table"
       inkscape:original-d="m 4.8796094,11.387542 h -2.875328 c -0.4080344,0 -0.7388056,-0.330777 -0.7389049,-0.738812 C 1.2650969,9.4986966 1.264267,8.4407055 1.2639849,7.300959 1.2638839,6.8929248 1.594668,6.5622278 2.0026994,6.5637431 c 0.9313642,0.00346 2.070807,0.011676 2.8769506,0.015906 0.4080089,0.00214 0.738771,0.3333931 0.738771,0.7414275 V 10.64873 c 1e-7,0.408035 -0.3307772,0.738812 -0.7388116,0.738812 z M 11.393601,6.8303335 v 4.5572085 c -1.7288959,-0.03072 -3.4118106,-3.42e-4 -5.1531066,0 V 1.2160032 c 1.6024552,0.00324 3.7983026,-3.4e-4 5.1531066,-3.4e-4 V 4.4530057 L 12.174457,3.4885592 V 0.59856855 c -6.6879401,0 -8.5010397,-3.8612e-4 -10.1356361,-2.476e-4 -0.7665416,6.496e-5 -1.38795735,0.62165245 -1.38784546,1.38819405 6.5111e-4,4.4605737 0.004194,7.0095145 0.002909,8.688248 -5.8666e-4,0.766537 0.61838456,1.391986 1.38492356,1.393791 2.723443,0.0064 6.7884051,-0.0059 10.135649,-0.0059 v 4.4e-5 -6.4119186 z M 4.8796094,5.9400621 H 2.0027038 c -0.4080344,0 -0.7338188,-0.3307544 -0.7332777,-0.7387854 0.00144,-1.085476 -0.021834,-2.1717212 -0.00677,-3.2569267 0.00566,-0.407552 0.3476465,-0.7343289 0.7556733,-0.7318979 0.9537169,0.00568 1.9075324,0.00442 2.8612983,0.00359 0.4080229,-3.547e-4 0.7387933,0.3303491 0.7387933,0.7383835 v 3.2468249 c 0,0.4080344 -0.3307772,0.7388116 -0.7388116,0.7388116 z"
       inkscape:path-effect="#path-effect54"
       transform="matrix(0.77042617,0,0,0.77042617,1.5421598,1.4949495)" /><g
       id="g920"
       transform="matrix(0.26458333,0,0,0.26458333,16.951814,8.7843524)"
       style="display:inline"
       inkscape:label="JuliaLogo"><path
         id="path3804"
         d="m 93.14,80.94 h -13 V 21.13 l 13,-3.58 z"
         class="cls-1" /><g
         id="g898"><g
           id="g893"><path
             id="path19"
             d="m 22.17,36.33 a 8.9,8.9 0 1 1 8.9,-8.9 8.91,8.91 0 0 1 -8.9,8.9 z"
             class="cls-2" /></g><path
           id="path3819"
           d="M 29.14,80.83 A 26.48,26.48 0 0 1 27.83,90 12.12,12.12 0 0 1 24.21,95.4 12.33,12.33 0 0 1 18.57,98 36.64,36.64 0 0 1 11.25,98.67 22.47,22.47 0 0 1 6.44,98.2 13,13 0 0 1 2.9,96.93 6,6 0 0 1 0.76,95.07 3.62,3.62 0 0 1 0,92.88 4.26,4.26 0 0 1 1.59,89.5 a 6.47,6.47 0 0 1 4.33,-1.35 5,5 0 0 1 1.87,0.32 6,6 0 0 1 1.43,0.79 12,12 0 0 1 1.16,1.07 c 0.31,0.4 0.59,0.77 0.83,1.12 a 7.58,7.58 0 0 0 1.51,1.55 2.3,2.3 0 0 0 1.15,0.4 1.85,1.85 0 0 0 1,-0.28 2,2 0 0 0 0.71,-1 7.18,7.18 0 0 0 0.4,-1.91 23.12,23.12 0 0 0 0.16,-3.06 V 40.48 l 13,-3.58 z"
           class="cls-1" /></g><path
         id="path3802"
         d="M 48.14,37.94 V 68 a 6.14,6.14 0 0 0 0.47,2.39 6.45,6.45 0 0 0 1.39,1.85 7,7 0 0 0 2,1.27 6.12,6.12 0 0 0 2.4,0.48 4.2,4.2 0 0 0 1.61,-0.4 8.42,8.42 0 0 0 1.8,-1.12 13.27,13.27 0 0 0 1.81,-1.66 12.92,12.92 0 0 0 1.61,-2.11 V 37.94 h 13 v 43 h -13 v -4 a 22.47,22.47 0 0 1 -5.43,3.53 13.62,13.62 0 0 1 -5.59,1.28 16.52,16.52 0 0 1 -5.9,-1 15.59,15.59 0 0 1 -4.76,-2.89 13.56,13.56 0 0 1 -3.17,-4.28 12.41,12.41 0 0 1 -1.15,-5.29 V 37.94 Z"
         class="cls-1" /><g
         id="g905"><g
           id="g890"><path
             id="path13"
             d="m 105.79,36.33 a 8.9,8.9 0 1 1 8.91,-8.9 8.91,8.91 0 0 1 -8.91,8.9 z"
             class="cls-3" /><path
             id="path25"
             d="m 127.18,36.33 a 8.9,8.9 0 1 1 8.91,-8.9 8.91,8.91 0 0 1 -8.91,8.9 z"
             class="cls-4" /><path
             id="path31"
             d="m 116.49,17.8 a 8.9,8.9 0 1 1 8.9,-8.9 8.89,8.89 0 0 1 -8.9,8.9 z"
             class="cls-5"
             style="fill:#618b57;fill-opacity:1" /></g><path
           id="path3823"
           d="m 100.14,40.6 13,-3.58 v 43.92 h -13 z"
           class="cls-1" /></g><path
         id="path3808"
         d="m 140.14,58.77 c -1.29056,0.55254 -2.54919,1.176849 -3.77,1.87 -1.22365,0.655234 -2.3822,1.425369 -3.46,2.3 -0.97485,0.761776 -1.83383,1.661174 -2.55,2.67 -0.62966,0.852843 -0.97907,1.880107 -1,2.94 -0.002,0.791065 0.10534,1.578612 0.32,2.34 0.19236,0.676771 0.48566,1.320674 0.87,1.91 0.33373,0.491071 0.74986,0.920734 1.23,1.27 0.44317,0.309101 0.96969,0.476472 1.51,0.48 1.13056,-0.04176 2.22902,-0.387187 3.18,-1 1.24952,-0.758703 2.45789,-1.583197 3.62,-2.47 z m 13,22.17 h -13 v -3.42 c -0.71,0.61 -1.42,1.17 -2.11,1.67 -0.72262,0.521157 -1.49268,0.97315 -2.3,1.35 -0.90515,0.395155 -1.85076,0.690239 -2.82,0.88 -1.24714,0.224356 -2.51297,0.328168 -3.78,0.31 -1.81084,0.02698 -3.61311,-0.253676 -5.33,-0.83 -1.46796,-0.508933 -2.8255,-1.292914 -4,-2.31 -1.07903,-0.984026 -1.93488,-2.187668 -2.51,-3.53 -0.58508,-1.382064 -0.88115,-2.869236 -0.87,-4.37 -0.0281,-1.522579 0.28272,-3.032356 0.91,-4.42 0.64344,-1.324786 1.50551,-2.531681 2.55,-3.57 1.13499,-1.103905 2.40111,-2.064412 3.77,-2.86 1.49868,-0.869251 3.05191,-1.640855 4.65,-2.31 1.67,-0.69 3.4,-1.32 5.17,-1.91 l 5.25,-1.71 1.43,-0.31 v -4.26 c 0.0229,-1.165335 -0.12531,-2.327725 -0.44,-3.45 -0.20566,-0.84635 -0.59865,-1.63575 -1.15,-2.31 -0.46124,-0.59668 -1.08177,-1.05081 -1.79,-1.31 -0.74941,-0.273669 -1.54223,-0.409194 -2.34,-0.4 -0.88028,-0.02225 -1.75744,0.113218 -2.59,0.4 -0.63518,0.235554 -1.2069,0.615558 -1.67,1.11 -0.42405,0.451138 -0.73581,0.995861 -0.91,1.59 -0.19664,0.648078 -0.29111,1.322837 -0.28,2 0.005,0.791936 -0.0892,1.581381 -0.28,2.35 -0.14633,0.727505 -0.45766,1.41173 -0.91,2 -0.48068,0.569164 -1.09599,1.009163 -1.79,1.28 -0.91742,0.381938 -1.90704,0.559387 -2.9,0.52 -0.85332,0.01024 -1.70214,-0.125027 -2.51,-0.4 -0.70131,-0.263969 -1.34858,-0.653684 -1.91,-1.15 -0.52582,-0.501611 -0.95614,-1.094571 -1.27,-1.75 -0.2912,-0.689862 -0.44082,-1.431198 -0.44,-2.18 0.008,-1.501177 0.54279,-2.95191 1.51,-4.1 1.11883,-1.360645 2.49944,-2.482818 4.06,-3.3 1.86819,-0.976156 3.85946,-1.695973 5.92,-2.14 2.33454,-0.540338 4.72376,-0.808789 7.12,-0.8 2.64789,-0.04459 5.29117,0.237534 7.87,0.84 1.95792,0.437018 3.81884,1.230196 5.49,2.34 1.3572,0.926126 2.4525,2.186754 3.18,3.66 0.69469,1.506454 1.03669,3.151491 1,4.81 z"
         class="cls-1"
         sodipodi:nodetypes="cccccccccccccccccccccccccccccccccccccccccccccccccccccccc" /></g><path
       style="display:inline;fill:#4d64ae;fill-opacity:1;stroke-width:1.29798"
       d="m 25.600493,-0.0639577 c 0.0068,-0.02033028 0.216305,-0.26015801 0.327073,-0.38800212 0.09097,-0.10498857 0.184996,-0.20728181 0.27714,-0.31123711 0.119981,-0.1353606 0.281464,-0.32934247 0.35902,-0.40689847 0,0 0.06139,-0.050885 0.166284,-0.072358 0.127334,0.00689 0.228912,0.1196548 0.177953,0.31994414 -0.0074,0.0291339 -0.02955,0.0721249 -0.04606,0.0970339 -0.25064,0.37816655 -0.490592,0.79619977 -0.74457,1.18774823 -0.746869,1.15141746 -1.988316,2.96678496 -2.290233,3.42155156 -0.301917,0.4547667 -0.783636,1.1557803 -0.82846,1.2124171 -0.04482,0.056637 -0.120873,0.1090978 -0.189618,0.1324158 -0.07968,0.027026 -0.206073,0.021149 -0.295418,-0.013738 l 1.9e-5,2.39e-5 c -0.11842,-0.04624 -0.162822,-0.098733 -1.066804,-1.4292833 -0.903981,-1.3305503 -1.215522,-1.7694605 -1.239647,-1.8329144 -0.03487,-0.091711 -0.01584,-0.2526321 0.02105,-0.3090743 0.02814,-0.043057 0.161917,-0.081531 0.261716,-0.081273 0.102096,2.637e-4 0.297658,0.113378 1.044361,0.8420367 -0.0017,0.00794 1.105616,1.086492 1.105616,1.086492 L 23.004353,2.997029 c 0.270715,-0.2949372 2.592658,-3.05066589 2.596138,-3.0609868 z"
       id="path23-3"
       sodipodi:nodetypes="caasccaccscccsssccccc"
       inkscape:path-effect="#path-effect29"
       inkscape:original-d="m 25.600493,-0.0639577 c 0.0068,-0.02033028 0.216305,-0.26015801 0.327073,-0.38800212 0.09097,-0.10498857 0.184996,-0.20728181 0.27714,-0.31123711 0.119981,-0.1353606 0.281464,-0.32934247 0.35902,-0.40689847 0,0 0.06139,-0.050885 0.166284,-0.072358 0.137971,0.00747 0.245703,0.1392328 0.161915,0.37196 -0.261555,0.38982353 -0.510488,0.82561377 -0.774588,1.23276624 -0.746869,1.15141746 -1.988316,2.96678496 -2.290233,3.42155156 -0.301917,0.4547667 -0.783636,1.1557803 -0.82846,1.2124171 -0.04482,0.056637 -0.120873,0.1090978 -0.189618,0.1324158 -0.07968,0.027026 -0.206073,0.021149 -0.295418,-0.013738 l 1.9e-5,2.39e-5 c -0.11842,-0.04624 -0.162822,-0.098733 -1.066804,-1.4292833 -0.903981,-1.3305503 -1.215522,-1.7694605 -1.239647,-1.8329144 -0.03487,-0.091711 -0.01584,-0.2526321 0.02105,-0.3090743 0.02814,-0.043057 0.161917,-0.081531 0.261716,-0.081273 0.102096,2.637e-4 0.297658,0.113378 1.044361,0.8420367 -0.0017,0.00794 1.105616,1.086492 1.105616,1.086492 L 23.004353,2.997029 c 0.270715,-0.2949372 2.592658,-3.05066589 2.596138,-3.0609868 z"
       transform="matrix(0.77042617,0,0,0.77042617,-8.6487033,4.3817049)"
       inkscape:label="CheckMark" /></g></svg>
